<svg xmlns="http://www.w3.org/2000/svg" xmlns:xlink="http://www.w3.org/1999/xlink" version="1.1" width="1000" height="1000" viewBox="0 0 1000 1000" xml:space="preserve">
<desc>Created with Fabric.js 3.5.0</desc>
<defs>
</defs>
<rect x="0" y="0" width="100%" height="100%" fill="rgba(255,255,255,0)"/>
<g transform="matrix(1 0 0 1 500 500)" id="334782">
<g style="" vector-effect="non-scaling-stroke">
		<g transform="matrix(1 0 0 1 -13.5761 -9.0417)" id="Layer_1">
<path style="stroke: rgb(53,53,53); stroke-width: 2; stroke-dasharray: none; stroke-linecap: round; stroke-dashoffset: 0; stroke-linejoin: round; stroke-miterlimit: 4; is-custom-font: none; font-file-url: none; fill: none; fill-rule: nonzero; opacity: 1;" transform=" translate(-10.4238, -14.9583)" d="M 17.30639 11.25243 a 5.29412 5.29412 0 1 0 -10.58824 0 a 5.23707 5.23707 0 0 0 0.584 2.37007 A 5.27955 5.27955 0 0 0 8.8358 23.95831" stroke-linecap="round"/>
</g>
		<g transform="matrix(1 0 0 1 -16.027 3.7606)" id="Layer_1">
<path style="stroke: rgb(53,53,53); stroke-width: 2; stroke-dasharray: none; stroke-linecap: round; stroke-dashoffset: 0; stroke-linejoin: miter; stroke-miterlimit: 10; is-custom-font: none; font-file-url: none; fill: none; fill-rule: nonzero; opacity: 1;" transform=" translate(-7.973, -27.7606)" d="M 3.58191 21.56266 a 7.00047 7.00047 0 1 0 11.32225 6.78321 V 28" stroke-linecap="round"/>
</g>
		<g transform="matrix(1 0 0 1 -17.2306 14.1852)" id="Layer_1">
<path style="stroke: rgb(53,53,53); stroke-width: 2; stroke-dasharray: none; stroke-linecap: round; stroke-dashoffset: 0; stroke-linejoin: round; stroke-miterlimit: 4; is-custom-font: none; font-file-url: none; fill: none; fill-rule: nonzero; opacity: 1;" transform=" translate(-6.7694, -38.1852)" d="M 8.43086 42.32855 A 6.21606 6.21606 0 0 1 5.108 36.82494 a 6.14985 6.14985 0 0 1 0.68573 -2.78316" stroke-linecap="round"/>
</g>
		<g transform="matrix(1 0 0 1 -7.5 -5.5)" id="Layer_1">
<path style="stroke: rgb(53,53,53); stroke-width: 2; stroke-dasharray: none; stroke-linecap: round; stroke-dashoffset: 0; stroke-linejoin: miter; stroke-miterlimit: 10; is-custom-font: none; font-file-url: none; fill: none; fill-rule: nonzero; opacity: 1;" transform=" translate(-16.5, -18.5)" d="M 19 16 a 5 5 0 0 1 -5 5" stroke-linecap="round"/>
</g>
		<g transform="matrix(1 0 0 1 1.7605 -9)" id="Layer_1">
<polyline style="stroke: rgb(53,53,53); stroke-width: 2; stroke-dasharray: none; stroke-linecap: round; stroke-dashoffset: 0; stroke-linejoin: miter; stroke-miterlimit: 10; is-custom-font: none; font-file-url: none; fill: none; fill-rule: nonzero; opacity: 1;" points="-6.7605,1.01 4.7395,1.01 6.7605,-1.01 "/>
</g>
		<g transform="matrix(1 0 0 1 8.25 -5)" id="Layer_1">
<polyline style="stroke: rgb(53,53,53); stroke-width: 2; stroke-dasharray: none; stroke-linecap: round; stroke-dashoffset: 0; stroke-linejoin: miter; stroke-miterlimit: 10; is-custom-font: none; font-file-url: none; fill: none; fill-rule: nonzero; opacity: 1;" points="-6.75,1.01 -0.75,1.01 1.271,-1.01 6.75,-1.01 "/>
</g>
		<g transform="matrix(1 0 0 1 4.719 9)" id="Layer_1">
<polyline style="stroke: rgb(53,53,53); stroke-width: 2; stroke-dasharray: none; stroke-linecap: round; stroke-dashoffset: 0; stroke-linejoin: miter; stroke-miterlimit: 10; is-custom-font: none; font-file-url: none; fill: none; fill-rule: nonzero; opacity: 1;" points="-3.802,-1.01 1.781,-1.01 3.802,1.01 "/>
</g>
		<g transform="matrix(1 0 0 1 7.9585 5)" id="Layer_1">
<polyline style="stroke: rgb(53,53,53); stroke-width: 2; stroke-dasharray: none; stroke-linecap: round; stroke-dashoffset: 0; stroke-linejoin: miter; stroke-miterlimit: 10; is-custom-font: none; font-file-url: none; fill: none; fill-rule: nonzero; opacity: 1;" points="-7.0415,-1.01 -0.4585,-1.01 1.5625,1.01 7.0415,1.01 "/>
</g>
		<g transform="matrix(1 0 0 1 3.0209 17.5157)" id="Layer_1">
<path style="stroke: rgb(53,53,53); stroke-width: 2; stroke-dasharray: none; stroke-linecap: round; stroke-dashoffset: 0; stroke-linejoin: miter; stroke-miterlimit: 10; is-custom-font: none; font-file-url: none; fill: none; fill-rule: nonzero; opacity: 1;" transform=" translate(-27.0208, -41.5157)" d="M 39 38.01018 H 31.52094 l -1.52061 -2.02061 l -4.95867 0.00011 v 6.05209 a 5 5 0 0 1 -10 0" stroke-linecap="round"/>
</g>
		<g transform="matrix(1 0 0 1 4.0209 -17.4951)" id="Layer_1">
<path style="stroke: rgb(53,53,53); stroke-width: 2; stroke-dasharray: none; stroke-linecap: round; stroke-dashoffset: 0; stroke-linejoin: miter; stroke-miterlimit: 10; is-custom-font: none; font-file-url: none; fill: none; fill-rule: nonzero; opacity: 1;" transform=" translate(-28.0208, -6.5049)" d="M 17.04167 4.13392 a 4.05277 4.05277 0 0 1 8 0.91833 V 12.01 l 4.45868 0.00013 L 31.521 9.98956 H 39" stroke-linecap="round"/>
</g>
		<g transform="matrix(1 0 0 1 6.5209 0)" id="Layer_1">
<line style="stroke: rgb(53,53,53); stroke-width: 2; stroke-dasharray: none; stroke-linecap: round; stroke-dashoffset: 0; stroke-linejoin: miter; stroke-miterlimit: 10; is-custom-font: none; font-file-url: none; fill: none; fill-rule: nonzero; opacity: 1;" x1="5.479165" y1="0" x2="-5.479165" y2="0"/>
</g>
		<g transform="matrix(1 0 0 1 -13 -4)" id="Layer_1">
<circle style="stroke: none; stroke-width: 1; stroke-dasharray: none; stroke-linecap: butt; stroke-dashoffset: 0; stroke-linejoin: miter; stroke-miterlimit: 4; is-custom-font: none; font-file-url: none; fill: rgb(53,53,53); fill-rule: nonzero; opacity: 1;" cx="0" cy="0" r="1"/>
</g>
		<g transform="matrix(1 0 0 1 -12.2083 19.5)" id="Layer_1">
<circle style="stroke: none; stroke-width: 1; stroke-dasharray: none; stroke-linecap: butt; stroke-dashoffset: 0; stroke-linejoin: miter; stroke-miterlimit: 4; is-custom-font: none; font-file-url: none; fill: rgb(53,53,53); fill-rule: nonzero; opacity: 1;" cx="0" cy="0" r="1"/>
</g>
		<g transform="matrix(1 0 0 1 17.4792 -14)" id="Layer_1">
<circle style="stroke: rgb(53,53,53); stroke-width: 2; stroke-dasharray: none; stroke-linecap: round; stroke-dashoffset: 0; stroke-linejoin: miter; stroke-miterlimit: 10; is-custom-font: none; font-file-url: none; fill: none; fill-rule: nonzero; opacity: 1;" cx="0" cy="0" r="2"/>
</g>
		<g transform="matrix(1 0 0 1 17.4792 -6)" id="Layer_1">
<circle style="stroke: rgb(53,53,53); stroke-width: 2; stroke-dasharray: none; stroke-linecap: round; stroke-dashoffset: 0; stroke-linejoin: miter; stroke-miterlimit: 10; is-custom-font: none; font-file-url: none; fill: none; fill-rule: nonzero; opacity: 1;" cx="0" cy="0" r="2"/>
</g>
		<g transform="matrix(1 0 0 1 17.4792 6)" id="Layer_1">
<circle style="stroke: rgb(53,53,53); stroke-width: 2; stroke-dasharray: none; stroke-linecap: round; stroke-dashoffset: 0; stroke-linejoin: miter; stroke-miterlimit: 10; is-custom-font: none; font-file-url: none; fill: none; fill-rule: nonzero; opacity: 1;" cx="0" cy="0" r="2"/>
</g>
		<g transform="matrix(1 0 0 1 17.4792 14)" id="Layer_1">
<circle style="stroke: rgb(53,53,53); stroke-width: 2; stroke-dasharray: none; stroke-linecap: round; stroke-dashoffset: 0; stroke-linejoin: miter; stroke-miterlimit: 10; is-custom-font: none; font-file-url: none; fill: none; fill-rule: nonzero; opacity: 1;" cx="0" cy="0" r="2"/>
</g>
</g>
</g>
<g transform="matrix(0 18.6201 -18.6201 0 480.0004 499.9996)" id="151720">
<g style="" vector-effect="non-scaling-stroke">
		<g transform="matrix(1 0 0 1 -13.5761 -9.0417)" id="Layer_1">
<path style="stroke: rgb(54,138,141); stroke-width: 2; stroke-dasharray: none; stroke-linecap: round; stroke-dashoffset: 0; stroke-linejoin: round; stroke-miterlimit: 4; is-custom-font: none; font-file-url: none; fill: none; fill-rule: nonzero; opacity: 1;" transform=" translate(-10.4238, -14.9583)" d="M 17.30639 11.25243 a 5.29412 5.29412 0 1 0 -10.58824 0 a 5.23707 5.23707 0 0 0 0.584 2.37007 A 5.27955 5.27955 0 0 0 8.8358 23.95831" stroke-linecap="round"/>
</g>
		<g transform="matrix(1 0 0 1 -16.027 3.7606)" id="Layer_1">
<path style="stroke: rgb(54,138,141); stroke-width: 2; stroke-dasharray: none; stroke-linecap: round; stroke-dashoffset: 0; stroke-linejoin: miter; stroke-miterlimit: 10; is-custom-font: none; font-file-url: none; fill: none; fill-rule: nonzero; opacity: 1;" transform=" translate(-7.973, -27.7606)" d="M 3.58191 21.56266 a 7.00047 7.00047 0 1 0 11.32225 6.78321 V 28" stroke-linecap="round"/>
</g>
		<g transform="matrix(1 0 0 1 -17.2306 14.1852)" id="Layer_1">
<path style="stroke: rgb(54,138,141); stroke-width: 2; stroke-dasharray: none; stroke-linecap: round; stroke-dashoffset: 0; stroke-linejoin: round; stroke-miterlimit: 4; is-custom-font: none; font-file-url: none; fill: none; fill-rule: nonzero; opacity: 1;" transform=" translate(-6.7694, -38.1852)" d="M 8.43086 42.32855 A 6.21606 6.21606 0 0 1 5.108 36.82494 a 6.14985 6.14985 0 0 1 0.68573 -2.78316" stroke-linecap="round"/>
</g>
		<g transform="matrix(1 0 0 1 -7.5 -5.5)" id="Layer_1">
<path style="stroke: rgb(54,138,141); stroke-width: 2; stroke-dasharray: none; stroke-linecap: round; stroke-dashoffset: 0; stroke-linejoin: miter; stroke-miterlimit: 10; is-custom-font: none; font-file-url: none; fill: none; fill-rule: nonzero; opacity: 1;" transform=" translate(-16.5, -18.5)" d="M 19 16 a 5 5 0 0 1 -5 5" stroke-linecap="round"/>
</g>
		<g transform="matrix(1 0 0 1 1.7605 -9)" id="Layer_1">
<polyline style="stroke: rgb(54,138,141); stroke-width: 2; stroke-dasharray: none; stroke-linecap: round; stroke-dashoffset: 0; stroke-linejoin: miter; stroke-miterlimit: 10; is-custom-font: none; font-file-url: none; fill: none; fill-rule: nonzero; opacity: 1;" points="-6.7605,1.01 4.7395,1.01 6.7605,-1.01 "/>
</g>
		<g transform="matrix(1 0 0 1 8.25 -5)" id="Layer_1">
<polyline style="stroke: rgb(54,138,141); stroke-width: 2; stroke-dasharray: none; stroke-linecap: round; stroke-dashoffset: 0; stroke-linejoin: miter; stroke-miterlimit: 10; is-custom-font: none; font-file-url: none; fill: none; fill-rule: nonzero; opacity: 1;" points="-6.75,1.01 -0.75,1.01 1.271,-1.01 6.75,-1.01 "/>
</g>
		<g transform="matrix(1 0 0 1 4.719 9)" id="Layer_1">
<polyline style="stroke: rgb(54,138,141); stroke-width: 2; stroke-dasharray: none; stroke-linecap: round; stroke-dashoffset: 0; stroke-linejoin: miter; stroke-miterlimit: 10; is-custom-font: none; font-file-url: none; fill: none; fill-rule: nonzero; opacity: 1;" points="-3.802,-1.01 1.781,-1.01 3.802,1.01 "/>
</g>
		<g transform="matrix(1 0 0 1 7.9585 5)" id="Layer_1">
<polyline style="stroke: rgb(54,138,141); stroke-width: 2; stroke-dasharray: none; stroke-linecap: round; stroke-dashoffset: 0; stroke-linejoin: miter; stroke-miterlimit: 10; is-custom-font: none; font-file-url: none; fill: none; fill-rule: nonzero; opacity: 1;" points="-7.0415,-1.01 -0.4585,-1.01 1.5625,1.01 7.0415,1.01 "/>
</g>
		<g transform="matrix(1 0 0 1 3.0209 17.5157)" id="Layer_1">
<path style="stroke: rgb(54,138,141); stroke-width: 2; stroke-dasharray: none; stroke-linecap: round; stroke-dashoffset: 0; stroke-linejoin: miter; stroke-miterlimit: 10; is-custom-font: none; font-file-url: none; fill: none; fill-rule: nonzero; opacity: 1;" transform=" translate(-27.0208, -41.5157)" d="M 39 38.01018 H 31.52094 l -1.52061 -2.02061 l -4.95867 0.00011 v 6.05209 a 5 5 0 0 1 -10 0" stroke-linecap="round"/>
</g>
		<g transform="matrix(1 0 0 1 4.0209 -17.4951)" id="Layer_1">
<path style="stroke: rgb(54,138,141); stroke-width: 2; stroke-dasharray: none; stroke-linecap: round; stroke-dashoffset: 0; stroke-linejoin: miter; stroke-miterlimit: 10; is-custom-font: none; font-file-url: none; fill: none; fill-rule: nonzero; opacity: 1;" transform=" translate(-28.0208, -6.5049)" d="M 17.04167 4.13392 a 4.05277 4.05277 0 0 1 8 0.91833 V 12.01 l 4.45868 0.00013 L 31.521 9.98956 H 39" stroke-linecap="round"/>
</g>
		<g transform="matrix(1 0 0 1 6.5209 0)" id="Layer_1">
<line style="stroke: rgb(54,138,141); stroke-width: 2; stroke-dasharray: none; stroke-linecap: round; stroke-dashoffset: 0; stroke-linejoin: miter; stroke-miterlimit: 10; is-custom-font: none; font-file-url: none; fill: none; fill-rule: nonzero; opacity: 1;" x1="5.479165" y1="0" x2="-5.479165" y2="0"/>
</g>
		<g transform="matrix(1 0 0 1 -13 -4)" id="Layer_1">
<circle style="stroke: rgb(54,138,141); stroke-width: 1; stroke-dasharray: none; stroke-linecap: butt; stroke-dashoffset: 0; stroke-linejoin: miter; stroke-miterlimit: 4; is-custom-font: none; font-file-url: none; fill: rgb(53,53,53); fill-rule: nonzero; opacity: 1;" cx="0" cy="0" r="1"/>
</g>
		<g transform="matrix(1 0 0 1 -12.2083 19.5)" id="Layer_1">
<circle style="stroke: rgb(54,138,141); stroke-width: 1; stroke-dasharray: none; stroke-linecap: butt; stroke-dashoffset: 0; stroke-linejoin: miter; stroke-miterlimit: 4; is-custom-font: none; font-file-url: none; fill: rgb(53,53,53); fill-rule: nonzero; opacity: 1;" cx="0" cy="0" r="1"/>
</g>
		<g transform="matrix(1 0 0 1 17.4792 -14)" id="Layer_1">
<circle style="stroke: rgb(54,138,141); stroke-width: 2; stroke-dasharray: none; stroke-linecap: round; stroke-dashoffset: 0; stroke-linejoin: miter; stroke-miterlimit: 10; is-custom-font: none; font-file-url: none; fill: none; fill-rule: nonzero; opacity: 1;" cx="0" cy="0" r="2"/>
</g>
		<g transform="matrix(1 0 0 1 17.4792 -6)" id="Layer_1">
<circle style="stroke: rgb(54,138,141); stroke-width: 2; stroke-dasharray: none; stroke-linecap: round; stroke-dashoffset: 0; stroke-linejoin: miter; stroke-miterlimit: 10; is-custom-font: none; font-file-url: none; fill: none; fill-rule: nonzero; opacity: 1;" cx="0" cy="0" r="2"/>
</g>
		<g transform="matrix(1 0 0 1 17.4792 6)" id="Layer_1">
<circle style="stroke: rgb(54,138,141); stroke-width: 2; stroke-dasharray: none; stroke-linecap: round; stroke-dashoffset: 0; stroke-linejoin: miter; stroke-miterlimit: 10; is-custom-font: none; font-file-url: none; fill: none; fill-rule: nonzero; opacity: 1;" cx="0" cy="0" r="2"/>
</g>
		<g transform="matrix(1 0 0 1 17.4792 14)" id="Layer_1">
<circle style="stroke: rgb(54,138,141); stroke-width: 2; stroke-dasharray: none; stroke-linecap: round; stroke-dashoffset: 0; stroke-linejoin: miter; stroke-miterlimit: 10; is-custom-font: none; font-file-url: none; fill: none; fill-rule: nonzero; opacity: 1;" cx="0" cy="0" r="2"/>
</g>
</g>
</g>
<g transform="matrix(0 18.6201 -18.6201 0 492.6671 500)" id="906578">
<g style="" vector-effect="non-scaling-stroke">
		<g transform="matrix(1 0 0 1 -13.5761 -9.0417)" id="Layer_1">
<path style="stroke: rgb(99,105,108); stroke-width: 2; stroke-dasharray: none; stroke-linecap: round; stroke-dashoffset: 0; stroke-linejoin: round; stroke-miterlimit: 4; is-custom-font: none; font-file-url: none; fill: none; fill-rule: nonzero; opacity: 1;" transform=" translate(-10.4238, -14.9583)" d="M 17.30639 11.25243 a 5.29412 5.29412 0 1 0 -10.58824 0 a 5.23707 5.23707 0 0 0 0.584 2.37007 A 5.27955 5.27955 0 0 0 8.8358 23.95831" stroke-linecap="round"/>
</g>
		<g transform="matrix(1 0 0 1 -16.027 3.7606)" id="Layer_1">
<path style="stroke: rgb(99,105,108); stroke-width: 2; stroke-dasharray: none; stroke-linecap: round; stroke-dashoffset: 0; stroke-linejoin: miter; stroke-miterlimit: 10; is-custom-font: none; font-file-url: none; fill: none; fill-rule: nonzero; opacity: 1;" transform=" translate(-7.973, -27.7606)" d="M 3.58191 21.56266 a 7.00047 7.00047 0 1 0 11.32225 6.78321 V 28" stroke-linecap="round"/>
</g>
		<g transform="matrix(1 0 0 1 -17.2306 14.1852)" id="Layer_1">
<path style="stroke: rgb(99,105,108); stroke-width: 2; stroke-dasharray: none; stroke-linecap: round; stroke-dashoffset: 0; stroke-linejoin: round; stroke-miterlimit: 4; is-custom-font: none; font-file-url: none; fill: none; fill-rule: nonzero; opacity: 1;" transform=" translate(-6.7694, -38.1852)" d="M 8.43086 42.32855 A 6.21606 6.21606 0 0 1 5.108 36.82494 a 6.14985 6.14985 0 0 1 0.68573 -2.78316" stroke-linecap="round"/>
</g>
		<g transform="matrix(1 0 0 1 -7.5 -5.5)" id="Layer_1">
<path style="stroke: rgb(99,105,108); stroke-width: 2; stroke-dasharray: none; stroke-linecap: round; stroke-dashoffset: 0; stroke-linejoin: miter; stroke-miterlimit: 10; is-custom-font: none; font-file-url: none; fill: none; fill-rule: nonzero; opacity: 1;" transform=" translate(-16.5, -18.5)" d="M 19 16 a 5 5 0 0 1 -5 5" stroke-linecap="round"/>
</g>
		<g transform="matrix(1 0 0 1 1.7605 -9)" id="Layer_1">
<polyline style="stroke: rgb(99,105,108); stroke-width: 2; stroke-dasharray: none; stroke-linecap: round; stroke-dashoffset: 0; stroke-linejoin: miter; stroke-miterlimit: 10; is-custom-font: none; font-file-url: none; fill: none; fill-rule: nonzero; opacity: 1;" points="-6.7605,1.01 4.7395,1.01 6.7605,-1.01 "/>
</g>
		<g transform="matrix(1 0 0 1 8.25 -5)" id="Layer_1">
<polyline style="stroke: rgb(99,105,108); stroke-width: 2; stroke-dasharray: none; stroke-linecap: round; stroke-dashoffset: 0; stroke-linejoin: miter; stroke-miterlimit: 10; is-custom-font: none; font-file-url: none; fill: none; fill-rule: nonzero; opacity: 1;" points="-6.75,1.01 -0.75,1.01 1.271,-1.01 6.75,-1.01 "/>
</g>
		<g transform="matrix(1 0 0 1 4.719 9)" id="Layer_1">
<polyline style="stroke: rgb(99,105,108); stroke-width: 2; stroke-dasharray: none; stroke-linecap: round; stroke-dashoffset: 0; stroke-linejoin: miter; stroke-miterlimit: 10; is-custom-font: none; font-file-url: none; fill: none; fill-rule: nonzero; opacity: 1;" points="-3.802,-1.01 1.781,-1.01 3.802,1.01 "/>
</g>
		<g transform="matrix(1 0 0 1 7.9585 5)" id="Layer_1">
<polyline style="stroke: rgb(99,105,108); stroke-width: 2; stroke-dasharray: none; stroke-linecap: round; stroke-dashoffset: 0; stroke-linejoin: miter; stroke-miterlimit: 10; is-custom-font: none; font-file-url: none; fill: none; fill-rule: nonzero; opacity: 1;" points="-7.0415,-1.01 -0.4585,-1.01 1.5625,1.01 7.0415,1.01 "/>
</g>
		<g transform="matrix(1 0 0 1 3.0209 17.5157)" id="Layer_1">
<path style="stroke: rgb(99,105,108); stroke-width: 2; stroke-dasharray: none; stroke-linecap: round; stroke-dashoffset: 0; stroke-linejoin: miter; stroke-miterlimit: 10; is-custom-font: none; font-file-url: none; fill: none; fill-rule: nonzero; opacity: 1;" transform=" translate(-27.0208, -41.5157)" d="M 39 38.01018 H 31.52094 l -1.52061 -2.02061 l -4.95867 0.00011 v 6.05209 a 5 5 0 0 1 -10 0" stroke-linecap="round"/>
</g>
		<g transform="matrix(1 0 0 1 4.0209 -17.4951)" id="Layer_1">
<path style="stroke: rgb(99,105,108); stroke-width: 2; stroke-dasharray: none; stroke-linecap: round; stroke-dashoffset: 0; stroke-linejoin: miter; stroke-miterlimit: 10; is-custom-font: none; font-file-url: none; fill: none; fill-rule: nonzero; opacity: 1;" transform=" translate(-28.0208, -6.5049)" d="M 17.04167 4.13392 a 4.05277 4.05277 0 0 1 8 0.91833 V 12.01 l 4.45868 0.00013 L 31.521 9.98956 H 39" stroke-linecap="round"/>
</g>
		<g transform="matrix(1 0 0 1 6.5209 0)" id="Layer_1">
<line style="stroke: rgb(99,105,108); stroke-width: 2; stroke-dasharray: none; stroke-linecap: round; stroke-dashoffset: 0; stroke-linejoin: miter; stroke-miterlimit: 10; is-custom-font: none; font-file-url: none; fill: none; fill-rule: nonzero; opacity: 1;" x1="5.479165" y1="0" x2="-5.479165" y2="0"/>
</g>
		<g transform="matrix(1 0 0 1 -13 -4)" id="Layer_1">
<circle style="stroke: rgb(99,105,108); stroke-width: 1; stroke-dasharray: none; stroke-linecap: butt; stroke-dashoffset: 0; stroke-linejoin: miter; stroke-miterlimit: 4; is-custom-font: none; font-file-url: none; fill: rgb(53,53,53); fill-rule: nonzero; opacity: 1;" cx="0" cy="0" r="1"/>
</g>
		<g transform="matrix(1 0 0 1 -12.2083 19.5)" id="Layer_1">
<circle style="stroke: rgb(99,105,108); stroke-width: 1; stroke-dasharray: none; stroke-linecap: butt; stroke-dashoffset: 0; stroke-linejoin: miter; stroke-miterlimit: 4; is-custom-font: none; font-file-url: none; fill: rgb(53,53,53); fill-rule: nonzero; opacity: 1;" cx="0" cy="0" r="1"/>
</g>
		<g transform="matrix(1 0 0 1 17.4792 -14)" id="Layer_1">
<circle style="stroke: rgb(99,105,108); stroke-width: 2; stroke-dasharray: none; stroke-linecap: round; stroke-dashoffset: 0; stroke-linejoin: miter; stroke-miterlimit: 10; is-custom-font: none; font-file-url: none; fill: none; fill-rule: nonzero; opacity: 1;" cx="0" cy="0" r="2"/>
</g>
		<g transform="matrix(1 0 0 1 17.4792 -6)" id="Layer_1">
<circle style="stroke: rgb(99,105,108); stroke-width: 2; stroke-dasharray: none; stroke-linecap: round; stroke-dashoffset: 0; stroke-linejoin: miter; stroke-miterlimit: 10; is-custom-font: none; font-file-url: none; fill: none; fill-rule: nonzero; opacity: 1;" cx="0" cy="0" r="2"/>
</g>
		<g transform="matrix(1 0 0 1 17.4792 6)" id="Layer_1">
<circle style="stroke: rgb(99,105,108); stroke-width: 2; stroke-dasharray: none; stroke-linecap: round; stroke-dashoffset: 0; stroke-linejoin: miter; stroke-miterlimit: 10; is-custom-font: none; font-file-url: none; fill: none; fill-rule: nonzero; opacity: 1;" cx="0" cy="0" r="2"/>
</g>
		<g transform="matrix(1 0 0 1 17.4792 14)" id="Layer_1">
<circle style="stroke: rgb(99,105,108); stroke-width: 2; stroke-dasharray: none; stroke-linecap: round; stroke-dashoffset: 0; stroke-linejoin: miter; stroke-miterlimit: 10; is-custom-font: none; font-file-url: none; fill: none; fill-rule: nonzero; opacity: 1;" cx="0" cy="0" r="2"/>
</g>
</g>
</g>
</svg>